<svg width="79" height="79" viewBox="0 0 79 79" fill="none" xmlns="http://www.w3.org/2000/svg">
<circle cx="39.9436" cy="39.9279" r="37.0412" stroke="#7F6F64" stroke-width="2.49767"/>
<circle cx="39.9419" cy="39.9263" r="32.0356" fill="#EEE5DE"/>
<path d="M32.9034 22.2266H29.9802C29.4047 22.2266 28.9297 22.6924 28.9297 23.2771V30.1374C28.9297 34.4582 32.2822 37.9569 36.4203 37.9569C40.5585 37.9569 43.911 34.4582 43.911 30.1374V23.3593C43.911 22.7838 43.4451 22.3088 42.8605 22.3088H40.2661" stroke="#7F6F64" stroke-width="1.742" stroke-miterlimit="10"/>
<path d="M33.0391 19.9062V24.4737" stroke="#7F6F64" stroke-width="1.742" stroke-miterlimit="10" stroke-linecap="round"/>
<path d="M40.3477 19.9062V24.4737" stroke="#7F6F64" stroke-width="1.742" stroke-miterlimit="10" stroke-linecap="round"/>
<path d="M36.4219 37.957V47.8502C36.4219 49.4762 37.7373 50.7916 39.3633 50.7916H39.6556C41.2817 50.7916 42.5971 49.4762 42.5971 47.8502V45.5299C42.5971 43.9039 43.9125 42.5884 45.5385 42.5884C47.1646 42.5884 48.48 43.9039 48.48 45.5299V54.674" stroke="#7F6F64" stroke-width="1.742" stroke-miterlimit="10"/>
<path d="M48.552 60.4752C50.1513 60.4752 51.4478 59.1787 51.4478 57.5794C51.4478 55.9801 50.1513 54.6836 48.552 54.6836C46.9527 54.6836 45.6562 55.9801 45.6562 57.5794C45.6562 59.1787 46.9527 60.4752 48.552 60.4752Z" stroke="#7F6F64" stroke-width="1.742" stroke-miterlimit="10"/>
</svg>
